<svg width="211" height="68" viewBox="0 0 211 68" fill="none" xmlns="http://www.w3.org/2000/svg">
<path d="M20.5745 34.6485L9.34014 46.1362V62.2561H0.5V0H9.34014V34.8338L42.859 0H52.9883L26.6521 27.9782L54.83 62.2561H44.5165L20.5745 34.6485Z" fill="#FF6060"/>
<path d="M119.289 57.2535L122.789 50.5832C126.84 53.3625 133.102 55.4006 139.18 55.4006C147.099 55.4006 150.23 52.9919 150.23 48.9156C150.23 38.3543 120.578 47.4333 120.578 28.7194C120.578 20.1963 128.129 14.6377 140.1 14.6377C146.178 14.6377 153.176 16.3053 157.228 18.8993L153.545 25.5696C149.309 22.7903 144.705 21.8639 140.1 21.8639C132.734 21.8639 129.05 24.6431 129.05 28.3489C129.05 39.466 158.702 30.387 158.702 48.7303C158.702 57.2535 150.966 62.6268 138.443 62.6268C130.892 62.8121 123.157 60.4034 119.289 57.2535Z" fill="#FF6060"/>
<path d="M210.822 33.7219V62.256H202.718V55.9562C199.956 60.2178 194.615 62.6265 187.248 62.6265C176.566 62.6265 169.936 56.8827 169.936 48.7301C169.936 41.1333 174.724 35.0189 188.721 35.0189H202.166V33.3513C202.166 26.1252 197.93 22.0489 189.642 22.0489C184.117 22.0489 178.408 24.087 174.724 27.0516L171.225 20.5666C176.014 16.6756 183.012 14.4521 190.563 14.4521C203.639 14.6374 210.822 20.9372 210.822 33.7219ZM202.35 47.8036V41.1333H189.274C180.802 41.1333 178.408 44.4685 178.408 48.3595C178.408 52.9917 182.275 55.9562 188.721 55.9562C195.167 56.1415 200.324 53.3622 202.35 47.8036Z" fill="#FF6060"/>
<path d="M92.0323 49.8422V62.4417L97.3732 59.2918V46.6924L92.0323 49.8422Z" fill="#FF6060"/>
<path d="M106.766 34.4633L84.8497 21.6786L72.6945 14.6377L60.7234 35.575L60.9076 55.2153L82.6396 68.0001L84.8497 66.7031V48.1745L94.6106 30.9429L104.556 36.6867V55.2153L106.766 53.9184V34.4633Z" fill="#FF6060"/>
</svg>
