<svg width="123" height="41" viewBox="0 0 123 41" fill="none" xmlns="http://www.w3.org/2000/svg">
<path d="M12.1445 20.74L5.62785 27.4036V36.7542H0.5V0.641602H5.62785V20.8474L25.0709 0.641602H30.9466L15.6699 16.8708L32.0149 36.7542H26.0324L12.1445 20.74Z" fill="white"/>
<path d="M69.4054 33.8527L71.4352 29.9835C73.7855 31.5957 77.4177 32.7779 80.9431 32.7779C85.5368 32.7779 87.3529 31.3807 87.3529 29.0162C87.3529 22.89 70.1532 28.1564 70.1532 17.3011C70.1532 12.3571 74.5333 9.13281 81.4772 9.13281C85.0026 9.13281 89.0622 10.1001 91.4124 11.6048L89.2758 15.474C86.8187 13.8618 84.148 13.3244 81.4772 13.3244C77.204 13.3244 75.0674 14.9366 75.0674 17.0862C75.0674 23.5348 92.2671 18.2684 92.2671 28.9087C92.2671 33.8527 87.7802 36.9696 80.5158 36.9696C76.1357 37.077 71.6489 35.6798 69.4054 33.8527Z" fill="white"/>
<path d="M122.5 20.2021V36.7537H117.799V33.0994C116.197 35.5714 113.099 36.9687 108.826 36.9687C102.63 36.9687 98.7837 33.6368 98.7837 28.9078C98.7837 24.5012 101.561 20.9545 109.68 20.9545H117.479V19.9872C117.479 15.7955 115.022 13.431 110.215 13.431C107.01 13.431 103.698 14.6133 101.561 16.3329L99.5315 12.5712C102.309 10.3141 106.369 9.02441 110.749 9.02441C118.334 9.13189 122.5 12.7861 122.5 20.2021ZM117.586 28.3704V24.5012H110.001C105.087 24.5012 103.698 26.4358 103.698 28.6929C103.698 31.3798 105.941 33.0994 109.68 33.0994C113.419 33.2069 116.411 31.5948 117.586 28.3704Z" fill="white"/>
<path d="M53.5946 29.5537V36.8622L56.6927 35.0351V27.7266L53.5946 29.5537Z" fill="white"/>
<path d="M62.141 20.6329L49.4282 13.217L42.3774 9.13281L35.4335 21.2778L35.5403 32.6705L48.1462 40.0864L49.4282 39.3341V28.5863L55.0902 18.5909L60.859 21.9227V32.6705L62.141 31.9181V20.6329Z" fill="white"/>
</svg>
